<svg width="27" height="27" viewBox="0 0 27 27" fill="none" xmlns="http://www.w3.org/2000/svg">
<path id="Box" fill-rule="evenodd" clip-rule="evenodd" d="M4.23982 1.94607L5.46725 1.70059C6.3201 1.53002 7.18541 1.93017 7.6078 2.69046L9.7017 6.45948C10.1354 7.24007 9.99901 8.21356 9.3676 8.84498L7.95791 10.2547C7.3091 10.9043 7.1859 11.9122 7.65972 12.6986C8.45488 14.0206 9.3805 15.2097 10.4366 16.2658C11.4927 17.3219 12.6809 18.2466 14.0013 19.0401C14.7878 19.5119 15.7943 19.3881 16.4432 18.7399L17.8529 17.3303C18.4843 16.6988 19.4578 16.5625 20.2384 16.9962L24.0074 19.0901C24.7677 19.5124 25.1678 20.3778 24.9973 21.2306L24.7518 22.458C24.6344 23.0442 24.2611 23.5472 23.733 23.8275C18.7792 26.4681 13.4035 24.8896 7.60591 19.0919C1.8083 13.2943 0.229771 7.91864 2.87031 2.96484C3.15063 2.4368 3.65362 2.06342 4.23982 1.94607Z" stroke="#464646" stroke-width="2" stroke-linecap="round" stroke-linejoin="round"/>
</svg>
